<?xml version="1.0" encoding="utf-8"?>
<!-- Generator: Adobe Illustrator 22.0.0, SVG Export Plug-In . SVG Version: 6.00 Build 0)  -->
<svg version="1.1" xmlns="http://www.w3.org/2000/svg" xmlns:xlink="http://www.w3.org/1999/xlink" x="0px" y="0px"
	 viewBox="0 0 828.9 722.4" style="enable-background:new 0 0 828.9 722.4;" xml:space="preserve">
<style type="text/css">
	.st0{fill:none;stroke-width:1;stroke-miterlimit:10;}
</style>
<g>
	<polygon class="st0" points="452.5,294.6 374.6,294.6 335.7,362.1 374.6,429.5 452.5,429.5 491.5,362.1 	"/>
	<polygon class="st0" points="364.2,447.6 463,447.6 512.3,362.1 463,276.5 364.2,276.5 314.8,362.1 	"/>
	<polygon class="st0" points="353.8,465.6 473.4,465.6 533.1,362.1 473.4,258.5 353.8,258.5 294,362.1 	"/>
	<polygon class="st0" points="343.4,483.6 483.8,483.6 553.9,362.1 483.8,240.5 343.4,240.5 273.2,362.1 	"/>
	<polygon class="st0" points="333,501.6 494.2,501.6 574.7,362.1 494.2,222.5 333,222.5 252.4,362.1 	"/>
	<polygon class="st0" points="322.6,519.7 504.6,519.7 595.6,362.1 504.6,204.5 322.6,204.5 231.6,362.1 	"/>
	<polygon class="st0" points="312.2,537.7 515,537.7 616.4,362.1 515,186.4 312.2,186.4 210.8,362.1 	"/>
	<polygon class="st0" points="301.8,555.7 525.4,555.7 637.2,362.1 525.4,168.4 301.8,168.4 190,362.1 	"/>
	<polygon class="st0" points="291.4,573.7 535.8,573.7 658,362.1 535.8,150.4 291.4,150.4 169.2,362.1 	"/>
	<polygon class="st0" points="281,591.7 546.2,591.7 678.8,362.1 546.2,132.4 281,132.4 148.4,362.1 	"/>
	<polygon class="st0" points="270.6,609.8 556.6,609.8 699.6,362.1 556.6,114.4 270.6,114.4 127.6,362.1 	"/>
	<polygon class="st0" points="260.2,627.8 567,627.8 720.4,362.1 567,96.3 260.2,96.3 106.7,362.1 	"/>
	<polygon class="st0" points="249.8,645.8 577.4,645.8 741.2,362.1 577.4,78.3 249.8,78.3 85.9,362.1 	"/>
	<polygon class="st0" points="239.4,663.8 587.8,663.8 762,362.1 587.8,60.3 239.4,60.3 65.1,362.1 	"/>
	<polygon class="st0" points="229,681.8 598.2,681.8 782.8,362.1 598.2,42.3 229,42.3 44.3,362.1 	"/>
	<polygon class="st0" points="218.5,699.9 608.6,699.9 803.7,362.1 608.6,24.2 218.5,24.2 23.5,362.1 	"/>
	<polygon class="st0" points="619,6.2 208.1,6.2 2.7,362.1 208.1,717.9 619,717.9 824.5,362.1 	"/>
</g>
</svg>
